<?xml version="1.0" encoding="UTF-8" standalone="no"?><!DOCTYPE svg PUBLIC "-//W3C//DTD SVG 1.1//EN" "http://www.w3.org/Graphics/SVG/1.1/DTD/svg11.dtd"><svg width="100%" height="100%" viewBox="0 0 16 16" version="1.1" xmlns="http://www.w3.org/2000/svg" xmlns:xlink="http://www.w3.org/1999/xlink" xml:space="preserve" xmlns:serif="http://www.serif.com/" style="fill-rule:evenodd;clip-rule:evenodd;stroke-linejoin:round;stroke-miterlimit:2;"><g id="New-File" serif:id="New File"><circle cx="4.072" cy="7.44" r="2.83" style="fill:#222222;"/><path d="M4.072,3.931l0,-3.188l6.584,0l2.983,2.983l0,10.411l-9.567,0l0,-3.188c1.936,0 3.509,-1.572 3.509,-3.509c0,-1.936 -1.572,-3.509 -3.509,-3.509Zm-0.635,4.144l-1.317,0c-0.175,0 -0.317,-0.142 -0.317,-0.317l0,-0.635c0,-0.175 0.142,-0.317 0.317,-0.317l1.317,0l0,-1.317c0,-0.175 0.142,-0.317 0.317,-0.317l0.635,0c0.175,0 0.317,0.142 0.317,0.317l0,1.317l1.317,0c0.175,0 0.317,0.142 0.317,0.317l0,0.635c0,0.175 -0.142,0.317 -0.317,0.317l-1.317,0l0,1.317c0,0.175 -0.142,0.317 -0.317,0.317l-0.635,0c-0.175,0 -0.317,-0.142 -0.317,-0.317l0,-1.317Z" style="fill:#fff;"/><path d="M13.638,3.726l0.48,0.48l0,10.411l-9.567,0l-0,-0.48l9.087,-0l-0,-10.411Zm0,0l-2.983,0l0,-2.983l2.983,2.983Z" style="fill:#ccc;"/></g></svg>